<svg xmlns="http://www.w3.org/2000/svg" xmlns:xlink="http://www.w3.org/1999/xlink" viewBox="0 0 814.97 200.19"><defs><style>.cls-1{fill:#585b96;}.cls-2{fill:#9f1b1b;}.cls-3{fill:#373737;}.cls-4{fill:url(#Dégradé_sans_nom_15);}.cls-5{fill:url(#Dégradé_sans_nom_13);}.cls-6{fill:none;}</style><linearGradient id="Dégradé_sans_nom_15" x1="43.03" y1="9.35" x2="154.86" y2="164.84" gradientUnits="userSpaceOnUse"><stop offset="0.19" stop-color="#eeeff1"/><stop offset="0.29" stop-color="#e6e7e9"/><stop offset="0.44" stop-color="#d0d0d2"/><stop offset="0.63" stop-color="#acacad"/><stop offset="0.8" stop-color="#868686"/><stop offset="0.85" stop-color="#6c6c6c"/><stop offset="0.91" stop-color="#525251"/><stop offset="0.96" stop-color="#424241"/><stop offset="1" stop-color="#3c3c3b"/></linearGradient><linearGradient id="Dégradé_sans_nom_13" x1="65.88" y1="55.58" x2="202.99" y2="197.59" gradientUnits="userSpaceOnUse"><stop offset="0" stop-color="#fff"/><stop offset="0.15" stop-color="#e2e2e2"/><stop offset="0.49" stop-color="#a7a7a7"/><stop offset="0.74" stop-color="#828282"/><stop offset="0.87" stop-color="#747474"/></linearGradient></defs><g id="Calque_2" data-name="Calque 2"><g id="Calque_1-2" data-name="Calque 1"><path class="cls-1" d="M183.16,142.5V111.37h14.53a19.32,19.32,0,0,1,3.54.29,5.45,5.45,0,0,1,2.6,1.28,6.72,6.72,0,0,1,2,3.43,19.53,19.53,0,0,1,.51,4.69,19.18,19.18,0,0,1-.4,4.08,5.72,5.72,0,0,1-1.64,2.94,6,6,0,0,1-1.87,1.32,8.29,8.29,0,0,1-2.1.62,24.47,24.47,0,0,1-2.91.21l-1.84,0h-9V142.5Zm3.46-15.19h8.27a23,23,0,0,0,4.73-.36,3.52,3.52,0,0,0,2.36-1.7,8.79,8.79,0,0,0,.78-4.24,16.39,16.39,0,0,0-.34-3.81,3.19,3.19,0,0,0-1.46-2,6.54,6.54,0,0,0-3.37-.68h-11Z"/><path class="cls-1" d="M212.06,127H208.7c0-2.72.69-4.45,2.07-5.21s3.56-1.13,6.52-1.13a21.24,21.24,0,0,1,5.34.53,5,5,0,0,1,3.05,2.19,9.33,9.33,0,0,1,1,4.94V142.5h-3.09l.2-2.28a5.87,5.87,0,0,1-3,2.13,15.93,15.93,0,0,1-4.37.51,17.58,17.58,0,0,1-4.75-.52,4.83,4.83,0,0,1-2.81-2,8.06,8.06,0,0,1-1-4.37,7.13,7.13,0,0,1,1-4.17,5,5,0,0,1,2.85-1.91,18.38,18.38,0,0,1,4.6-.47,20,20,0,0,1,4.24.37,4.42,4.42,0,0,1,2.71,1.81v-2.53a12.34,12.34,0,0,0-.47-4,2.61,2.61,0,0,0-1.74-1.65,14.26,14.26,0,0,0-4.09-.41c-2.05,0-3.44.29-4.16.87a2.67,2.67,0,0,0-1,2.38,2,2,0,0,0,.05.36A1.62,1.62,0,0,1,212.06,127Zm-.72,8.59c0,1.82.37,3.05,1.1,3.68s2,.94,3.89.94a26.09,26.09,0,0,0,3.61-.21,5.08,5.08,0,0,0,2.55-1.1,3.42,3.42,0,0,0,1.09-2.81c0-1.77-.5-2.91-1.5-3.41a10.56,10.56,0,0,0-4.54-.75h-.82c-2.36,0-3.9.32-4.61,1C211.6,133.31,211.34,134.21,211.34,135.6Z"/><path class="cls-1" d="M228.61,120.72h3.15l-.1,2.83a6.25,6.25,0,0,1,2.84-2.44,11.09,11.09,0,0,1,4.07-.66,10.32,10.32,0,0,1,5.66,1.26,5.83,5.83,0,0,1,2.49,3.58,26.2,26.2,0,0,1,.58,6.19,37.43,37.43,0,0,1-.26,4.83,9.34,9.34,0,0,1-1.09,3.38,5.55,5.55,0,0,1-2.53,2.26,10.7,10.7,0,0,1-4.5.8,13.65,13.65,0,0,1-4.24-.59,5.54,5.54,0,0,1-2.92-2.3v12h-3.15Zm3.2,10.15v1.67a17.17,17.17,0,0,0,.41,4.17,4.15,4.15,0,0,0,1.73,2.46,7,7,0,0,0,3.9.89,7.63,7.63,0,0,0,4.11-.86,3.63,3.63,0,0,0,1.61-2.38,22.71,22.71,0,0,0,.33-4.47v-1.28a28.21,28.21,0,0,0-.29-4.68A3.67,3.67,0,0,0,242,124a7.49,7.49,0,0,0-4.07-.86,8.27,8.27,0,0,0-4.08.78,3.65,3.65,0,0,0-1.69,2.37A21.28,21.28,0,0,0,231.81,130.87Z"/><path class="cls-1" d="M264.92,135.84h3.41a7.66,7.66,0,0,1-1.11,4.56,5,5,0,0,1-3,1.92,24.35,24.35,0,0,1-5.17.43,18.29,18.29,0,0,1-5-.55,5.87,5.87,0,0,1-2.94-1.76,7,7,0,0,1-1.43-3.21,26.57,26.57,0,0,1-.41-5.14,30.54,30.54,0,0,1,.57-6.71,5.88,5.88,0,0,1,2.56-3.68q2-1.29,6.11-1.29a17.14,17.14,0,0,1,6.16.84,4.87,4.87,0,0,1,2.83,2.94,20.78,20.78,0,0,1,.82,6.32v1.69H252.68a27.16,27.16,0,0,0,.28,4.55,3.82,3.82,0,0,0,1.54,2.48,6.85,6.85,0,0,0,4,.93h.87a10.27,10.27,0,0,0,4.13-.65c.93-.43,1.4-1.42,1.4-2.95Zm.06-6.18a17.28,17.28,0,0,0-.38-4.31,2.79,2.79,0,0,0-1.67-1.91,11.61,11.61,0,0,0-4.15-.54,9.37,9.37,0,0,0-3.8.6,3.33,3.33,0,0,0-1.8,2,13.18,13.18,0,0,0-.5,4.13Z"/><path class="cls-1" d="M284.18,120.72v2.64h-8.39v13.3a4.36,4.36,0,0,0,.6,2.69,3.21,3.21,0,0,0,2.46.71c1.35,0,2.22-.3,2.59-.91a5.87,5.87,0,0,0,.55-3v-1.36h3a11.8,11.8,0,0,1-1.19,5.94c-.8,1.31-2.47,2-5,2a10.34,10.34,0,0,1-3.79-.56,3.51,3.51,0,0,1-2-1.87,9.07,9.07,0,0,1-.59-3.66v-13.3h-2.86v-2.64h2.86v-5.24h3.29v5.24Z"/><path class="cls-1" d="M302.75,135.84h3.41a7.66,7.66,0,0,1-1.11,4.56,4.92,4.92,0,0,1-3,1.92,24.29,24.29,0,0,1-5.17.43,18.16,18.16,0,0,1-5-.55,5.83,5.83,0,0,1-2.94-1.76,7.1,7.1,0,0,1-1.44-3.21,26.68,26.68,0,0,1-.4-5.14,30.54,30.54,0,0,1,.57-6.71,5.85,5.85,0,0,1,2.56-3.68c1.32-.86,3.36-1.29,6.1-1.29a17.24,17.24,0,0,1,6.17.84,4.88,4.88,0,0,1,2.82,2.94,20.47,20.47,0,0,1,.82,6.32v1.69H290.51a28.28,28.28,0,0,0,.28,4.55,3.82,3.82,0,0,0,1.54,2.48,6.85,6.85,0,0,0,4,.93h.87a10.24,10.24,0,0,0,4.13-.65c.93-.43,1.4-1.42,1.4-2.95Zm.06-6.18a17.89,17.89,0,0,0-.37-4.31,2.8,2.8,0,0,0-1.68-1.91,11.58,11.58,0,0,0-4.15-.54,9.4,9.4,0,0,0-3.8.6,3.33,3.33,0,0,0-1.8,2,13.18,13.18,0,0,0-.5,4.13Z"/><path class="cls-1" d="M307.48,120.72h3.14l0,2.49a6.47,6.47,0,0,1,5.94-3q6.28,0,6.29,7.71h-3.15a7.5,7.5,0,0,0-.75-3.77c-.51-.83-1.54-1.25-3.1-1.25q-5.08,0-5.09,5.08V142.5h-3.24Z"/><path class="cls-1" d="M327.59,111.37V115h-3.3v-3.6Zm0,31.13h-3.3V120.72h3.3Z"/><path class="cls-1" d="M345.11,135.84h3.41a7.66,7.66,0,0,1-1.11,4.56,5,5,0,0,1-3,1.92,24.35,24.35,0,0,1-5.17.43,18.29,18.29,0,0,1-5-.55,5.83,5.83,0,0,1-2.94-1.76,7,7,0,0,1-1.43-3.21,26.57,26.57,0,0,1-.41-5.14,30.54,30.54,0,0,1,.57-6.71,5.88,5.88,0,0,1,2.56-3.68q2-1.29,6.11-1.29a17.14,17.14,0,0,1,6.16.84,4.83,4.83,0,0,1,2.82,2.94,20.41,20.41,0,0,1,.83,6.32v1.69H332.87a27.16,27.16,0,0,0,.28,4.55,3.82,3.82,0,0,0,1.54,2.48,6.85,6.85,0,0,0,4,.93h.87a10.27,10.27,0,0,0,4.13-.65c.93-.43,1.4-1.42,1.4-2.95Zm.06-6.18a17.78,17.78,0,0,0-.38-4.31,2.79,2.79,0,0,0-1.67-1.91,11.61,11.61,0,0,0-4.15-.54,9.45,9.45,0,0,0-3.81.6,3.35,3.35,0,0,0-1.79,2,13.18,13.18,0,0,0-.5,4.13Z"/><path class="cls-2" d="M363.63,127.93a9.32,9.32,0,0,1,3.15-.59,4.88,4.88,0,0,1,2.85.88,2,2,0,0,1,.85,1.71,4,4,0,0,1-.65,2,8.42,8.42,0,0,1-3.6,2.9,12.28,12.28,0,0,1-3.46.88,7.72,7.72,0,0,1-2.81-.28,5.53,5.53,0,0,0,0,2.47,2.51,2.51,0,0,0,1.55,1.68,7.24,7.24,0,0,0,3.13.44,11,11,0,0,0,3.78-1.21,39.65,39.65,0,0,0,6.83-5.94c1.06-.29,1.59.06,1.59,1a4.16,4.16,0,0,1-.09.8,60.84,60.84,0,0,1-7,6.17,11.17,11.17,0,0,1-6.09,1.76,7.5,7.5,0,0,1-4.14-.91,5.37,5.37,0,0,1-1.7-1.77,7.21,7.21,0,0,1-.59-2.8,10.2,10.2,0,0,1,1.11-4.73,9.88,9.88,0,0,1,2.36-2.85A10.34,10.34,0,0,1,363.63,127.93Zm.28,2.34a6.58,6.58,0,0,0-3.3,3.16q3.67.51,5.68-1c1.33-1,1.83-1.8,1.49-2.39Q367,129,363.91,130.27Z"/><path class="cls-2" d="M380.15,113.24c1,0,1.46.38,1.37,1.05l-1.06,5.35,4.78,0c1,0,1.52.38,1.42,1.25a1.32,1.32,0,0,1-1.48,1.51h-5.46L377,134.79c-.7,3.11-.31,4.75,1.17,4.9.68.05,1.78-.53,3.3-1.75s3.42-3,5.72-5.25c1.09-.36,1.64.06,1.64,1.25a2,2,0,0,1-.11.66,77,77,0,0,1-7.71,6.65,7,7,0,0,1-3.84,1.34q-3.27-.09-3.49-4.18a29.24,29.24,0,0,1,1-6.18l4-18A1.33,1.33,0,0,1,380.15,113.24Z"/><path class="cls-2" d="M607,128.52a6.33,6.33,0,0,1,2.46-.81,6.07,6.07,0,0,1,1.92.12c.53.13,1.32.38,2.39.74l4-14.62a.83.83,0,0,1,.91-.6,2.5,2.5,0,0,1,.51.06c.78.21,1.1.6,1,1.19l-5.69,21.25-.46,2.7c0,1.17.49,1.4,1.57.68a56.14,56.14,0,0,0,7.08-6.2c1.23-.34,1.85,0,1.85,1a3,3,0,0,1-.11.77,48.41,48.41,0,0,1-6.2,5.74c-1.84,1.37-3.27,2.05-4.27,2.05a2.59,2.59,0,0,1-1.48-.46,2.46,2.46,0,0,1-1.08-2,11.53,11.53,0,0,1-2.56,2,6.81,6.81,0,0,1-3,.51,3.81,3.81,0,0,1-3.41-2.59,8.87,8.87,0,0,1-.43-2.67,9,9,0,0,1,.63-3.25,12.29,12.29,0,0,1,2-3.62A8.9,8.9,0,0,1,607,128.52Zm3.6,1.57a5.34,5.34,0,0,0-2.72.82q-1.56.87-2.87,4.28-1.08,3.33.91,4.47a4.36,4.36,0,0,0,3.64-1,8.33,8.33,0,0,0,2.58-4.28l1-3.55A6.07,6.07,0,0,0,610.63,130.09Z"/><path class="cls-2" d="M627.62,127.93a9.38,9.38,0,0,1,3.16-.59,4.88,4.88,0,0,1,2.84.88,2,2,0,0,1,.85,1.71,4,4,0,0,1-.65,2,8.42,8.42,0,0,1-3.6,2.9,12.28,12.28,0,0,1-3.46.88,7.72,7.72,0,0,1-2.81-.28,5.53,5.53,0,0,0,0,2.47,2.51,2.51,0,0,0,1.55,1.68,7.24,7.24,0,0,0,3.13.44,11,11,0,0,0,3.78-1.21,39.65,39.65,0,0,0,6.83-5.94c1.06-.29,1.59.06,1.59,1a5,5,0,0,1-.08.8,61.78,61.78,0,0,1-7,6.17,11.14,11.14,0,0,1-6.09,1.76,7.5,7.5,0,0,1-4.14-.91,5.37,5.37,0,0,1-1.7-1.77,7.21,7.21,0,0,1-.59-2.8,10.2,10.2,0,0,1,1.11-4.73,9.88,9.88,0,0,1,2.36-2.85A10.34,10.34,0,0,1,627.62,127.93Zm.28,2.34a6.58,6.58,0,0,0-3.3,3.16q3.67.51,5.68-1c1.33-1,1.83-1.8,1.49-2.39Q630.95,129,627.9,130.27Z"/><path class="cls-1" d="M412.63,120.72v2.64h-5.79V142.5h-3.3V123.36h-3.26v-2.64h3.26v-3.2c0-2.45.55-4.15,1.67-5.09s2.89-1.42,5.33-1.42c.29,0,.65,0,1.08,0s.76.06,1,.06v2.68l-.87,0c-.41,0-.72,0-.92,0-2.67,0-4,1.16-4,3.5v3.47Z"/><path class="cls-1" d="M414.2,131a22.05,22.05,0,0,1,.69-6.21,5.54,5.54,0,0,1,2.67-3.36,12.47,12.47,0,0,1,5.88-1.09,16.79,16.79,0,0,1,6.32.91,5.14,5.14,0,0,1,2.91,3.12,20.28,20.28,0,0,1,.78,6.43,38,38,0,0,1-.46,6.82,6,6,0,0,1-2.4,3.83q-1.95,1.44-6.18,1.44a19.43,19.43,0,0,1-6.21-.77,5.15,5.15,0,0,1-3.07-2.87,15.88,15.88,0,0,1-.93-6.17Zm3.3,0v1.84q0,5,1.31,6.44c.62.62,1.79.92,3.51.92h1.57a13.24,13.24,0,0,0,3.31-.33,3.31,3.31,0,0,0,1.91-1.34,6,6,0,0,0,.81-3c.05-1.16.07-2.82.07-5a28.08,28.08,0,0,0-.27-4.62,3.09,3.09,0,0,0-1.4-2.18,7.34,7.34,0,0,0-3.72-.71h-.71a12,12,0,0,0-4.23.54,3,3,0,0,0-1.73,2,18.28,18.28,0,0,0-.43,4.71Z"/><path class="cls-1" d="M453.21,120.72V142.5h-3v-2.89a6.51,6.51,0,0,1-3,2.54,13.54,13.54,0,0,1-4.47.6q-3.87,0-5.7-1.84t-1.83-5.77V120.72h3.35v14.42a8.75,8.75,0,0,0,.41,3,2.53,2.53,0,0,0,1.43,1.47,8.2,8.2,0,0,0,3,.43,10.37,10.37,0,0,0,4-.61,3.56,3.56,0,0,0,1.93-2,11.21,11.21,0,0,0,.54-3.93V120.72Z"/><path class="cls-1" d="M454.67,120.72h3.15l-.05,2.49a6.47,6.47,0,0,1,5.94-3q6.3,0,6.3,7.71h-3.15a7.5,7.5,0,0,0-.75-3.77c-.51-.83-1.54-1.25-3.1-1.25q-5.08,0-5.09,5.08V142.5h-3.25Z"/><path class="cls-1" d="M471.49,120.72h2.94v2.83a6.44,6.44,0,0,1,3.08-2.62,14.5,14.5,0,0,1,9.06,0,4.68,4.68,0,0,1,2.48,2.45,11.8,11.8,0,0,1,.77,4.69V142.5h-3.3V128.33a10.55,10.55,0,0,0-.41-3.35,2.68,2.68,0,0,0-1.53-1.61,9.13,9.13,0,0,0-3.39-.47q-6.45,0-6.45,6.25V142.5h-3.25Z"/><path class="cls-1" d="M494.9,111.37V115h-3.3v-3.6Zm0,31.13h-3.3V120.72h3.3Z"/><path class="cls-1" d="M511,120.72v2.64h-8.39v13.3a4.36,4.36,0,0,0,.6,2.69,3.18,3.18,0,0,0,2.45.71c1.36,0,2.22-.3,2.6-.91a5.87,5.87,0,0,0,.55-3v-1.36h3a11.68,11.68,0,0,1-1.2,5.94c-.79,1.31-2.46,2-5,2a10.31,10.31,0,0,1-3.78-.56,3.51,3.51,0,0,1-2-1.87,9.07,9.07,0,0,1-.59-3.66v-13.3h-2.86v-2.64h2.86v-5.24h3.29v5.24Z"/><path class="cls-1" d="M531.78,120.72V142.5h-3v-2.89a6.56,6.56,0,0,1-3,2.54,13.64,13.64,0,0,1-4.48.6c-2.58,0-4.47-.61-5.69-1.84s-1.83-3.14-1.83-5.77V120.72h3.35v14.42a8.79,8.79,0,0,0,.4,3,2.57,2.57,0,0,0,1.44,1.47,8.11,8.11,0,0,0,3,.43,10.33,10.33,0,0,0,4-.61,3.53,3.53,0,0,0,1.93-2,11,11,0,0,0,.55-3.93V120.72Z"/><path class="cls-1" d="M533.24,120.72h3.15l0,2.49a6.47,6.47,0,0,1,5.94-3q6.3,0,6.3,7.71h-3.15a7.39,7.39,0,0,0-.76-3.77c-.5-.83-1.54-1.25-3.1-1.25q-5.09,0-5.08,5.08V142.5h-3.25Z"/><path class="cls-1" d="M565.79,135.84h3.41a7.66,7.66,0,0,1-1.11,4.56,5,5,0,0,1-3,1.92,24.35,24.35,0,0,1-5.17.43,18.29,18.29,0,0,1-5-.55,5.83,5.83,0,0,1-2.94-1.76,7,7,0,0,1-1.43-3.21,26.57,26.57,0,0,1-.41-5.14,30.54,30.54,0,0,1,.57-6.71,5.88,5.88,0,0,1,2.56-3.68q2-1.29,6.11-1.29a17.14,17.14,0,0,1,6.16.84,4.83,4.83,0,0,1,2.82,2.94,20.41,20.41,0,0,1,.83,6.32v1.69H553.55a27.16,27.16,0,0,0,.28,4.55,3.82,3.82,0,0,0,1.54,2.48,6.85,6.85,0,0,0,4,.93h.87a10.27,10.27,0,0,0,4.13-.65c.93-.43,1.4-1.42,1.4-2.95Zm.06-6.18a17.78,17.78,0,0,0-.38-4.31,2.79,2.79,0,0,0-1.67-1.91,11.61,11.61,0,0,0-4.15-.54,9.45,9.45,0,0,0-3.81.6,3.35,3.35,0,0,0-1.79,2,13.18,13.18,0,0,0-.5,4.13Z"/><path class="cls-1" d="M588.8,126.34h-3.25a2.81,2.81,0,0,0-1.32-2.77,8.22,8.22,0,0,0-3.66-.67h-1.63a7.22,7.22,0,0,0-3.49.67,2.81,2.81,0,0,0-1.18,2.68,6.3,6.3,0,0,0,.26,2.05,1.8,1.8,0,0,0,.94,1,5.84,5.84,0,0,0,2.06.42l4.39.1a15.49,15.49,0,0,1,3.79.52,5,5,0,0,1,2.67,1.82,6.21,6.21,0,0,1,1,3.86,7.36,7.36,0,0,1-1.1,4.45,4.92,4.92,0,0,1-3,1.85,25.56,25.56,0,0,1-5.09.4,28.32,28.32,0,0,1-4.85-.35,6,6,0,0,1-3.25-1.64,5.36,5.36,0,0,1-1.31-3.95,11,11,0,0,1,.05-1.22h3.26a6.76,6.76,0,0,0,.49,2.93,2.62,2.62,0,0,0,1.57,1.34,10.78,10.78,0,0,0,3.12.35h.76c2.58,0,4.27-.29,5.08-.87.65-.45,1-1.5,1-3.14,0-1.43-.33-2.34-1-2.72a6.54,6.54,0,0,0-3.12-.58h-1.32a1.25,1.25,0,0,1-.3-.05,1.7,1.7,0,0,0-.31,0c-2.14-.14-3.56-.24-4.25-.31a7.45,7.45,0,0,1-2.24-.64,4.14,4.14,0,0,1-1.92-1.74,6.57,6.57,0,0,1-.69-3.27c0-2.58.52-4.24,1.58-5q2.19-1.57,7.06-1.57a23.28,23.28,0,0,1,4.65.41,6.26,6.26,0,0,1,3.26,1.75A5.35,5.35,0,0,1,588.8,126.34Z"/><path class="cls-1" d="M649.25,142.5V111.37h3.25v12.09c1-2,3.17-3.06,6.6-3.06a10.91,10.91,0,0,1,5.68,1.2,5.82,5.82,0,0,1,2.6,3.49,22.89,22.89,0,0,1,.66,6.14,38.34,38.34,0,0,1-.26,4.87,9.19,9.19,0,0,1-1.13,3.43,5.72,5.72,0,0,1-2.66,2.3,11.65,11.65,0,0,1-4.79.82q-4.94,0-6.91-2.94l.21,2.79Zm3.3-11.53v1.23a26.45,26.45,0,0,0,.19,3.63,5.2,5.2,0,0,0,.81,2.26,3.7,3.7,0,0,0,1.91,1.4A10.56,10.56,0,0,0,659,140a6.75,6.75,0,0,0,4-.91c.8-.6,1.3-1.78,1.49-3.55a31.2,31.2,0,0,0,.21-4.27,29.52,29.52,0,0,0-.29-4.81,3.81,3.81,0,0,0-1.61-2.51,7.64,7.64,0,0,0-4.25-.91,6.94,6.94,0,0,0-3.94.89,4,4,0,0,0-1.65,2.51A23.14,23.14,0,0,0,652.55,131Z"/><path class="cls-1" d="M687.85,120.72V142.5h-3v-2.89a6.51,6.51,0,0,1-3,2.54,13.54,13.54,0,0,1-4.47.6q-3.87,0-5.7-1.84t-1.83-5.77V120.72h3.35v14.42a8.75,8.75,0,0,0,.41,3,2.53,2.53,0,0,0,1.43,1.47,8.2,8.2,0,0,0,3,.43,10.15,10.15,0,0,0,4-.62,3.51,3.51,0,0,0,1.93-2,11.21,11.21,0,0,0,.54-3.93V120.72Z"/><path class="cls-1" d="M689.32,120.72h3.14l0,2.49a6.46,6.46,0,0,1,5.94-3q6.28,0,6.29,7.71H701.5a7.48,7.48,0,0,0-.75-3.77c-.51-.84-1.54-1.25-3.1-1.25q-5.08,0-5.09,5.08V142.5h-3.24Z"/><path class="cls-1" d="M721.86,135.84h3.41a7.66,7.66,0,0,1-1.11,4.56,5,5,0,0,1-3,1.92,24.42,24.42,0,0,1-5.17.43,18.24,18.24,0,0,1-5-.55,5.83,5.83,0,0,1-2.94-1.76,7.09,7.09,0,0,1-1.44-3.22,26.57,26.57,0,0,1-.4-5.13,30.48,30.48,0,0,1,.57-6.71,5.82,5.82,0,0,1,2.56-3.68c1.33-.86,3.36-1.3,6.11-1.3a17.14,17.14,0,0,1,6.16.85,4.88,4.88,0,0,1,2.82,2.94,20.47,20.47,0,0,1,.82,6.32v1.69H709.63a27.16,27.16,0,0,0,.28,4.55,3.79,3.79,0,0,0,1.53,2.48,6.86,6.86,0,0,0,4,.93h.86a10.24,10.24,0,0,0,4.13-.65c.94-.44,1.4-1.42,1.4-2.95Zm.07-6.18a17.78,17.78,0,0,0-.38-4.31,2.78,2.78,0,0,0-1.68-1.91,11.55,11.55,0,0,0-4.14-.54,9.45,9.45,0,0,0-3.81.6,3.33,3.33,0,0,0-1.8,2,13.23,13.23,0,0,0-.49,4.13Z"/><path class="cls-1" d="M731,127h-3.37c0-2.72.7-4.45,2.08-5.21s3.55-1.13,6.52-1.13a21.24,21.24,0,0,1,5.34.53,5,5,0,0,1,3,2.19,9.33,9.33,0,0,1,1,4.94V142.5H742.6l.2-2.28a5.9,5.9,0,0,1-3,2.13,15.93,15.93,0,0,1-4.37.51,17.68,17.68,0,0,1-4.75-.52,4.81,4.81,0,0,1-2.8-2,8.06,8.06,0,0,1-1-4.37,7.11,7.11,0,0,1,1-4.17,4.88,4.88,0,0,1,2.85-1.91,18.24,18.24,0,0,1,4.59-.48,20,20,0,0,1,4.25.38,4.42,4.42,0,0,1,2.71,1.81v-2.53a12,12,0,0,0-.48-4,2.62,2.62,0,0,0-1.73-1.65A14.31,14.31,0,0,0,736,123c-2,0-3.44.29-4.17.86a2.72,2.72,0,0,0-1,2.39,1.48,1.48,0,0,0,.06.36A1.62,1.62,0,0,1,731,127Zm-.72,8.59c0,1.82.36,3.05,1.09,3.68a6.08,6.08,0,0,0,3.89.94,26.24,26.24,0,0,0,3.62-.21,5.08,5.08,0,0,0,2.55-1.1,3.44,3.44,0,0,0,1.08-2.81c0-1.77-.5-2.91-1.5-3.41a10.54,10.54,0,0,0-4.53-.75h-.82c-2.37,0-3.9.32-4.61,1C730.55,133.31,730.3,134.21,730.3,135.6Z"/><path class="cls-1" d="M765.4,120.72V142.5h-3v-2.89a6.51,6.51,0,0,1-3,2.54,13.54,13.54,0,0,1-4.47.6q-3.87,0-5.7-1.84t-1.83-5.77V120.72h3.35v14.42a8.75,8.75,0,0,0,.41,3,2.53,2.53,0,0,0,1.43,1.47,8.2,8.2,0,0,0,3,.43,10.15,10.15,0,0,0,4-.62,3.51,3.51,0,0,0,1.93-2,11.21,11.21,0,0,0,.54-3.93V120.72Z"/><rect class="cls-3" x="47.77" y="46.02" width="117.76" height="110.07" rx="11.8"/><rect class="cls-4" x="47.77" y="42.77" width="117.76" height="110.07" rx="11.8"/><rect class="cls-5" x="55.07" y="49.6" width="103.16" height="96.42" rx="10.33"/><path class="cls-1" d="M124.23,66.34S93.7,57.1,84.57,64.52l-.07.06c-.35.34-3.52,3.63,2.06,5.92,5.89,2.41,37.19,2.24,41.56,15.77a11.77,11.77,0,0,1,.34,5.5c-.55,2.32-2.32,5.51-8.89,8.76-1.88.93-8.62,4.52-26.16,4.44-6.7,0-17.88-.2-26.34-2.62-1.32-.38-5.57-2.11-7.25-2.75a.79.79,0,0,1-.51-.78l.19-4.72a.81.81,0,0,1,1-.76c5.17,1,30.81,5.72,36.86,3.49,6.73-2.49,6.78-7.08.21-8.93S65.33,86.61,60.06,76.56s-.33-16,14.87-20c14.29-3.79,40.74-2.78,51.68,3.91a.82.82,0,0,1,.36.86l-1,4.54a.79.79,0,0,1-.79.62A3.15,3.15,0,0,1,124.23,66.34Z"/><path class="cls-1" d="M77.74,140.45H59.21V104.36s22.35,9.82,67,.61v36.27H107.5v-25.6s-16.4,3.7-29.31-.34v25Z"/><rect class="cls-1" x="138.15" y="54.38" width="14.99" height="86.86"/><path class="cls-1" d="M187.67,58.46V96.07h-4.24V58.46Z"/><path class="cls-1" d="M196.64,69.75h3.55v3.43A7.8,7.8,0,0,1,203.92,70a14.49,14.49,0,0,1,5.28-.87,14.71,14.71,0,0,1,5.66.88,5.56,5.56,0,0,1,3,3,14.13,14.13,0,0,1,.93,5.66V96.07h-4V79a12.51,12.51,0,0,0-.5-4,3.16,3.16,0,0,0-1.85-2,11.08,11.08,0,0,0-4.09-.57q-7.78,0-7.79,7.55V96.07h-3.92Z"/><path class="cls-1" d="M242.77,69.75v3.19h-7V96.07h-4V72.94h-3.94V69.75h3.94V65.89q0-4.44,2-6.15T240.25,58c.35,0,.78,0,1.3.06s.92.07,1.22.07V61.4l-1.05,0-1.11,0c-3.22,0-4.84,1.41-4.84,4.23v4.18Z"/><path class="cls-1" d="M251.72,82.14a26.55,26.55,0,0,1,.84-7.51,6.69,6.69,0,0,1,3.22-4,15.11,15.11,0,0,1,7.1-1.32,20.13,20.13,0,0,1,7.63,1.1A6.1,6.1,0,0,1,274,74.13a24.39,24.39,0,0,1,1,7.77,46.52,46.52,0,0,1-.55,8.24,7.26,7.26,0,0,1-2.9,4.62q-2.37,1.74-7.47,1.74a23.36,23.36,0,0,1-7.5-.93,6.2,6.2,0,0,1-3.71-3.47,19.29,19.29,0,0,1-1.12-7.44Zm4,0v2.22c0,4,.53,6.64,1.58,7.78.75.74,2.16,1.11,4.24,1.11h1.9a15.71,15.71,0,0,0,4-.4,4,4,0,0,0,2.31-1.62,7.21,7.21,0,0,0,1-3.62q.07-2.1.08-6a35.09,35.09,0,0,0-.32-5.58,3.75,3.75,0,0,0-1.69-2.63,8.87,8.87,0,0,0-4.5-.86h-.85a14.29,14.29,0,0,0-5.11.66,3.59,3.59,0,0,0-2.1,2.42,22.68,22.68,0,0,0-.51,5.7Z"/><path class="cls-1" d="M284,69.75h3.81l-.06,3q2.25-3.62,7.17-3.62,7.62,0,7.61,9.31h-3.8a9,9,0,0,0-.92-4.55c-.6-1-1.85-1.51-3.74-1.51q-6.14,0-6.14,6.14V96.07H284Z"/><path class="cls-1" d="M311.47,69.75h3.8v3.93q2.18-4.31,8.53-4.3,7.06,0,8.46,4.3,2.6-4.43,8.83-4.42a13.56,13.56,0,0,1,5.55.94,6,6,0,0,1,3,3,13.16,13.16,0,0,1,.94,5.46V96.07h-4V78.33c0-2.22-.42-3.75-1.27-4.58s-2.4-1.24-4.68-1.24a12.9,12.9,0,0,0-4.26.69,4.54,4.54,0,0,0-2.79,2.38,12,12,0,0,0-.61,4.36V96.07H329V78.65a12.76,12.76,0,0,0-.55-3.77,2.9,2.9,0,0,0-1.69-1.74,10.9,10.9,0,0,0-3.89-.51q-4.17,0-5.86,2.05c-1.13,1.37-1.7,3.46-1.7,6.29v15.1h-3.8Z"/><path class="cls-1" d="M364.91,77.36h-4.06q0-4.92,2.5-6.3c1.67-.91,4.29-1.37,7.88-1.37a25.86,25.86,0,0,1,6.45.65A6,6,0,0,1,381.35,73a11.23,11.23,0,0,1,1.27,6V96.07H378.9l.24-2.76a7,7,0,0,1-3.62,2.57,19.2,19.2,0,0,1-5.28.62,21.44,21.44,0,0,1-5.74-.63,5.77,5.77,0,0,1-3.38-2.44,9.65,9.65,0,0,1-1.19-5.27,8.52,8.52,0,0,1,1.26-5,6,6,0,0,1,3.44-2.31,22.42,22.42,0,0,1,5.55-.57,24.26,24.26,0,0,1,5.13.45,5.32,5.32,0,0,1,3.27,2.18V79.82A14.78,14.78,0,0,0,378,75a3.2,3.2,0,0,0-2.1-2,17.57,17.57,0,0,0-4.94-.49q-3.71,0-5,1a3.24,3.24,0,0,0-1.17,2.87,1.7,1.7,0,0,0,.07.44A2.5,2.5,0,0,1,364.91,77.36ZM364,87.73q0,3.3,1.32,4.44c.89.76,2.45,1.14,4.7,1.14a31.62,31.62,0,0,0,4.37-.25,6.1,6.1,0,0,0,3.08-1.34,4.13,4.13,0,0,0,1.31-3.38c0-2.15-.6-3.52-1.81-4.13a12.85,12.85,0,0,0-5.48-.9h-1c-2.86,0-4.71.39-5.57,1.17C364.35,85,364,86.05,364,87.73Z"/><path class="cls-1" d="M409.13,69.75v3.19H399V89a5.3,5.3,0,0,0,.72,3.25c.48.57,1.47.86,3,.86s2.69-.37,3.13-1.1a7,7,0,0,0,.68-3.56V86.81h3.67q0,4.8-1.45,7.18c-1,1.58-3,2.38-6,2.38a12.43,12.43,0,0,1-4.57-.68,4.24,4.24,0,0,1-2.37-2.26A11,11,0,0,1,395,89V72.94h-3.45V69.75H395V63.43h4v6.32Z"/><path class="cls-1" d="M423.6,58.46v4.36h-4V58.46Zm0,37.61h-4V69.75h4Z"/><path class="cls-1" d="M455.82,69.75v37.48h-3.91V93q-1.77,3.5-8.23,3.5-4.55,0-6.87-1.59a7.42,7.42,0,0,1-3.07-4.44A30.34,30.34,0,0,1,433,83a38.6,38.6,0,0,1,.37-5.72,11.08,11.08,0,0,1,1.43-4.09,6.92,6.92,0,0,1,3.15-2.68,13.32,13.32,0,0,1,5.43-1,16.77,16.77,0,0,1,5.19.69A6.63,6.63,0,0,1,452,73.08l-.12-3.33ZM437.1,82.33v2a19.93,19.93,0,0,0,.52,5.17,4.47,4.47,0,0,0,2.14,2.79,10.11,10.11,0,0,0,4.89.93,7.93,7.93,0,0,0,4.76-1.17,5.21,5.21,0,0,0,2-3.15,26.52,26.52,0,0,0,.43-5.3v-.55a36.13,36.13,0,0,0-.39-6.24,4.57,4.57,0,0,0-2.07-3.11q-1.67-1.1-5.4-1.09a7.37,7.37,0,0,0-4.58,1.17A5.15,5.15,0,0,0,437.5,77,28.13,28.13,0,0,0,437.1,82.33Z"/><path class="cls-1" d="M486.49,69.75V96.07h-3.61V92.58a7.83,7.83,0,0,1-3.67,3.06,16.5,16.5,0,0,1-5.4.73q-4.68,0-6.88-2.22c-1.48-1.48-2.21-3.8-2.21-7V69.75h4V87.17a10.46,10.46,0,0,0,.5,3.65A3,3,0,0,0,471,92.6a10,10,0,0,0,3.66.52,12.39,12.39,0,0,0,4.81-.74A4.29,4.29,0,0,0,481.79,90a13.46,13.46,0,0,0,.66-4.75V69.75Z"/><path class="cls-1" d="M514.58,88h4.11c0,2.47-.44,4.3-1.34,5.51a6.05,6.05,0,0,1-3.64,2.32,30.14,30.14,0,0,1-6.25.52,22.37,22.37,0,0,1-6-.66,7.06,7.06,0,0,1-3.55-2.14,8.43,8.43,0,0,1-1.73-3.88,31.75,31.75,0,0,1-.49-6.2,36.68,36.68,0,0,1,.69-8.1,7.1,7.1,0,0,1,3.09-4.45q2.4-1.56,7.38-1.56a20.65,20.65,0,0,1,7.44,1A5.89,5.89,0,0,1,517.7,74a25,25,0,0,1,1,7.63v2h-18.9a33.81,33.81,0,0,0,.34,5.5,4.62,4.62,0,0,0,1.86,3,8.33,8.33,0,0,0,4.86,1.12h1a12.34,12.34,0,0,0,5-.79c1.13-.52,1.7-1.71,1.7-3.57Zm.07-7.47a21,21,0,0,0-.46-5.2,3.33,3.33,0,0,0-2-2.3,13.84,13.84,0,0,0-5-.66,11.3,11.3,0,0,0-4.6.73,4,4,0,0,0-2.17,2.44,16,16,0,0,0-.6,5Z"/><rect class="cls-6" width="814.97" height="200.19"/></g></g></svg>